<svg width="13" height="22" viewBox="0 0 13 22" fill="none" xmlns="http://www.w3.org/2000/svg">
<path d="M6.37184 3.32747C7.66834 3.32747 8.72271 4.38185 8.72271 5.67835C8.72271 6.9736 7.66834 8.02822 6.37184 8.02822C5.07659 8.02822 4.02096 6.9736 4.02096 5.67835C4.02096 4.38185 5.07659 3.32747 6.37184 3.32747ZM6.37184 11.3545C9.50371 11.3545 12.0496 8.8086 12.0496 5.67835C12.0496 2.54685 9.50371 -2.86102e-05 6.37184 -2.86102e-05C3.24071 -2.86102e-05 0.694088 2.54685 0.694088 5.67835C0.694088 8.80847 3.24071 11.3545 6.37184 11.3545ZM8.66896 15.9863C9.82484 15.723 10.9396 15.2657 11.9661 14.6207C12.743 14.1311 12.9772 13.104 12.4876 12.327C11.9986 11.5482 10.9721 11.3141 10.1938 11.8037C7.86821 13.2666 4.87371 13.266 2.54934 11.8037C1.77096 11.3141 0.744587 11.5483 0.256087 12.327C-0.233538 13.1046 -3.77297e-05 14.1311 0.777087 14.6207C1.80346 15.265 2.91821 15.723 4.07409 15.9863L0.899713 19.1606C0.250713 19.8102 0.250712 20.8632 0.900337 21.5127C1.22546 21.8372 1.65084 21.9998 2.07609 21.9998C2.50209 21.9998 2.92809 21.8373 3.25321 21.5127L6.37109 18.3935L9.49171 21.5127C10.1407 22.1623 11.1937 22.1623 11.8432 21.5127C12.4935 20.8632 12.4935 19.8095 11.8432 19.1606C11.8433 19.1606 8.66896 15.9863 8.66896 15.9863Z" fill="white"/>
</svg>
