<svg width="26" height="21" viewBox="0 0 26 21" fill="none" xmlns="http://www.w3.org/2000/svg">
<path d="M25.7061 2.78507C24.7678 3.18827 23.7755 3.4515 22.7607 3.56632C23.8335 2.94886 24.6425 1.95924 25.0342 0.785068C24.0318 1.36944 22.9385 1.78142 21.7998 2.00382C20.8171 0.995266 19.4657 0.430997 18.0576 0.441318C15.2591 0.419628 12.9705 2.66627 12.9404 5.46476C12.9404 5.84625 12.9849 6.22644 13.0732 6.59757C8.95066 6.42042 5.0935 4.51453 2.44824 1.34757C1.99232 2.11312 1.75206 2.98779 1.75293 3.87882C1.76206 5.56089 2.61636 7.12564 4.02637 8.04288C3.20683 8.02181 2.40383 7.80768 1.68262 7.41788V7.48038C1.70046 9.89642 3.42561 11.962 5.7998 12.4101C5.35932 12.53 4.90476 12.5904 4.44824 12.5898C4.1231 12.5889 3.79876 12.5575 3.47949 12.496C4.17058 14.5602 6.09192 15.9612 8.26855 15.9882C6.11048 17.6321 3.40229 18.3819 0.706055 18.0819C3.06183 19.5659 5.78901 20.354 8.57324 20.3554C16.4823 20.4947 23.0095 14.2017 23.1592 6.29288C23.1592 6.21476 23.1592 6.13663 23.1592 6.05851V5.41007C24.1582 4.69432 25.0208 3.80525 25.7061 2.78507" fill="#F6F5FA"/>
</svg>
